<?xml version="1.0" encoding="utf-8"?>
<!-- Generator: Adobe Illustrator 15.1.0, SVG Export Plug-In  -->
<!DOCTYPE svg PUBLIC "-//W3C//DTD SVG 1.1//EN" "http://www.w3.org/Graphics/SVG/1.1/DTD/svg11.dtd" [
	<!ENTITY ns_flows "http://ns.adobe.com/Flows/1.0/">
]>
<svg version="1.1"
	 xmlns="http://www.w3.org/2000/svg" xmlns:xlink="http://www.w3.org/1999/xlink" xmlns:a="http://ns.adobe.com/AdobeSVGViewerExtensions/3.0/"
	 x="0px" y="0px" width="519px" height="520px" viewBox="-13.921 -11.999 519 520"
	 overflow="visible" enable-background="new -13.921 -11.999 519 520" xml:space="preserve">
<defs>
</defs>
<path fill="#FFFFFF" d="M368.635,195.301c-2.913-1.674-6.277-2.555-9.948-2.904l0.23-83.657c6.893-0.966,13.146-5.112,16.647-11.196
	c6.237-10.847,2.416-25.015-8.432-31.254c-10.317-5.932-22.93-2.977-30.035,6.316l-70.374-40.471
	c4.724-10.662,0.67-23.201-9.649-29.135c-10.846-6.238-25.015-2.416-31.251,8.432c-3.5,6.084-3.938,13.578-1.307,20.021
	l-72.3,41.855c-1.887-2.843-4.339-5.31-7.516-7.136c-10.847-6.238-25.015-2.416-31.25,8.431
	c-6.239,10.847-2.417,25.015,8.429,31.254c2.909,1.673,6.277,2.553,9.947,2.904l0.189,83.544
	c-6.893,0.966-13.149,5.112-16.649,11.197c-6.239,10.849-2.417,25.017,8.429,31.254c10.318,5.934,22.934,2.977,30.036-6.314
	l70.373,40.469c-4.722,10.662-0.668,23.204,9.65,29.136c10.847,6.239,25.014,2.414,31.252-8.431
	c3.499-6.086,3.938-13.581,1.306-20.023l72.303-41.855c1.886,2.843,4.337,5.311,7.511,7.136c10.847,6.238,25.017,2.416,31.257-8.431
	C383.303,215.707,379.749,201.692,368.635,195.301z M364.547,70.787c8.466,4.869,11.652,15.855,6.632,24.587
	c-3.042,5.29-8.577,8.795-15.014,8.967l0,0c-3.293,0.218-6.66-0.662-9.572-2.335c-8.465-4.869-11.65-15.855-6.633-24.585
	C344.983,68.69,356.08,65.919,364.547,70.787z M230.319,14.016c4.869-8.466,15.856-11.653,24.587-6.633
	c8.73,5.021,11.653,15.855,6.633,24.586c-5.02,8.73-15.854,11.653-24.586,6.633c-2.91-1.674-5.1-3.988-6.831-7.098
	C227.034,25.855,227.124,19.572,230.319,14.016z M117.795,77.454c4.867-8.467,15.854-11.652,24.585-6.633
	c2.912,1.673,5.363,4.141,6.829,7.097l0,0c2.827,5.497,2.734,11.781-0.311,17.071c-3.041,5.292-8.579,8.796-14.597,8.855
	c-3.294,0.218-6.659-0.661-9.57-2.333C115.96,97.17,112.925,85.919,117.795,77.454z M126.081,230.785
	c-8.467-4.867-11.652-15.853-6.633-24.585c3.043-5.289,8.578-8.795,15.015-8.968c3.294-0.22,6.661,0.663,9.57,2.337
	c8.466,4.867,11.653,15.853,6.633,24.585C145.645,232.883,134.545,235.654,126.081,230.785z M260.307,287.558
	c-4.867,8.467-15.857,11.653-24.586,6.636c-8.73-5.021-11.652-15.856-6.632-24.587c5.021-8.732,15.854-11.656,24.587-6.635
	c2.908,1.673,5.095,3.989,6.832,7.098l0,0C263.594,275.718,263.504,282.004,260.307,287.558z M263.777,265.611
	c-1.888-2.844-4.492-5.047-7.404-6.722c-10.316-5.931-23.195-3.128-30.036,6.314l-70.374-40.468
	c4.724-10.661,0.671-23.204-9.647-29.138c-2.908-1.674-6.124-2.817-9.529-3.015l-0.188-83.547
	c6.893-0.965,12.884-5.263,16.384-11.348c3.499-6.085,3.938-13.579,1.569-19.868l72.301-41.858c1.888,2.844,4.492,5.048,7.402,6.72
	c10.319,5.934,23.195,3.131,30.036-6.315l70.372,40.47c-4.721,10.664-0.666,23.204,9.65,29.136c2.91,1.674,6.124,2.82,9.532,3.018
	l0.185,83.544c-6.89,0.967-12.883,5.265-16.381,11.35c-3.503,6.084-4.202,13.428-1.57,19.87L263.777,265.611z M348.247,230.753
	c-2.91-1.674-5.361-4.142-6.83-7.098c-2.825-5.496-2.731-11.779,0.309-17.072c3.044-5.292,8.579-8.795,14.599-8.854l0,0
	c3.296-0.22,6.66,0.66,9.572,2.334c8.467,4.869,11.654,15.854,6.631,24.587C367.507,233.379,356.714,235.621,348.247,230.753z"/>
<circle fill="#FFFFFF" cx="245.465" cy="150.522" r="12.818"/>
<line fill="#FFFFFF" x1="160.883" y1="101.881" x2="225.752" y2="139.187"/>
<rect x="155.479" y="119.32" transform="matrix(0.8669 0.4985 -0.4985 0.8669 86.1324 -80.0177)" fill="#FFFFFF" width="74.831" height="3.898"/>
<rect x="156.303" y="179.953" transform="matrix(0.866 -0.5 0.5 0.866 -64.9988 121.2373)" fill="#FFFFFF" width="74.835" height="3.898"/>
<rect x="260.741" y="119.29" transform="matrix(0.8596 -0.511 0.511 0.8596 -20.0843 169.3922)" fill="#FFFFFF" width="74.83" height="3.896"/>
<rect x="258.93" y="178.812" transform="matrix(0.8669 0.4985 -0.4985 0.8669 129.5598 -123.6688)" fill="#FFFFFF" width="74.83" height="3.898"/>
<path fill="#FFFFFF" d="M480.336,387.609c-2.909-1.676-6.277-2.554-9.947-2.903l0.228-83.658c6.894-0.964,13.151-5.112,16.65-11.196
	c6.237-10.85,2.416-25.017-8.433-31.253c-10.316-5.935-22.932-2.979-30.034,6.313l-70.373-40.47
	c4.721-10.662,0.667-23.203-9.65-29.135c-10.847-6.238-25.012-2.417-31.251,8.43c-3.5,6.085-3.938,13.579-1.305,20.021
	l-72.303,41.857c-1.886-2.843-4.341-5.311-7.515-7.136c-10.847-6.239-25.013-2.416-31.255,8.432
	c-6.235,10.846-2.416,25.014,8.434,31.253c2.91,1.672,6.276,2.554,9.949,2.903l0.185,83.545c-6.89,0.966-13.148,5.112-16.647,11.199
	c-6.235,10.845-2.416,25.014,8.433,31.252c10.315,5.931,22.929,2.977,30.034-6.316l70.374,40.471
	c-4.724,10.662-0.669,23.204,9.647,29.138c10.849,6.237,25.016,2.414,31.254-8.433c3.499-6.089,3.937-13.58,1.305-20.023
	l72.303-41.856c1.885,2.844,4.338,5.312,7.512,7.137c10.848,6.237,25.017,2.417,31.254-8.43
	C495.007,408.016,491.45,394,480.336,387.609z M476.249,263.096c8.464,4.868,11.656,15.854,6.633,24.586
	c-3.042,5.292-8.579,8.794-15.014,8.966l0,0c-3.297,0.221-6.662-0.66-9.572-2.334c-8.467-4.869-11.654-15.854-6.63-24.584
	C456.685,260.998,467.783,258.227,476.249,263.096z M342.023,206.323c4.868-8.467,15.854-11.651,24.583-6.633
	c8.733,5.024,11.655,15.855,6.635,24.587c-5.022,8.73-15.854,11.653-24.585,6.632c-2.91-1.674-5.1-3.989-6.832-7.098
	C338.733,218.163,338.828,211.88,342.023,206.323z M229.498,269.761c4.869-8.465,15.854-11.651,24.584-6.631
	c2.912,1.675,5.364,4.141,6.832,7.096l0,0c2.824,5.498,2.731,11.782-0.311,17.074c-3.044,5.29-8.58,8.795-14.6,8.854
	c-3.295,0.217-6.659-0.662-9.572-2.337C227.663,289.479,224.627,278.227,229.498,269.761z M237.786,423.094
	c-8.469-4.868-11.659-15.852-6.636-24.585c3.042-5.291,8.579-8.796,15.015-8.968c3.295-0.22,6.66,0.663,9.57,2.337
	c8.467,4.867,11.654,15.853,6.635,24.583C257.345,425.194,246.249,427.962,237.786,423.094z M372.008,479.867
	c-4.869,8.466-15.854,11.652-24.584,6.632c-8.733-5.021-11.653-15.855-6.633-24.586c5.021-8.733,15.854-11.653,24.587-6.633
	c2.907,1.673,5.097,3.989,6.829,7.098l0,0C375.298,468.024,375.206,474.31,372.008,479.867z M375.476,457.922
	c-1.885-2.849-4.491-5.051-7.401-6.724c-10.316-5.934-23.196-3.128-30.034,6.316l-70.375-40.472
	c4.723-10.66,0.67-23.202-9.647-29.136c-2.907-1.674-6.126-2.818-9.53-3.017l-0.19-83.543c6.895-0.968,12.886-5.267,16.386-11.352
	c3.499-6.084,3.937-13.578,1.567-19.869l72.305-41.856c1.884,2.845,4.49,5.047,7.402,6.722c10.315,5.931,23.195,3.127,30.036-6.315
	l70.372,40.47c-4.724,10.662-0.671,23.204,9.647,29.135c2.912,1.673,6.124,2.819,9.53,3.018l0.189,83.545
	c-6.893,0.967-12.887,5.266-16.386,11.35c-3.499,6.085-4.201,13.425-1.567,19.87L375.476,457.922z M459.95,423.062
	c-2.91-1.676-5.363-4.14-6.835-7.098c-2.821-5.498-2.729-11.779,0.312-17.071c3.046-5.293,8.581-8.796,14.6-8.856l0,0
	c3.294-0.219,6.659,0.662,9.572,2.336c8.466,4.867,11.651,15.854,6.632,24.585C479.208,425.689,468.417,427.93,459.95,423.062z"/>
<circle fill="#FFFFFF" cx="357.167" cy="342.832" r="12.818"/>
<line fill="#FFFFFF" x1="272.585" y1="294.188" x2="337.451" y2="331.493"/>
<rect x="267.18" y="311.627" transform="matrix(0.8669 0.4985 -0.4985 0.8669 196.865 -110.1011)" fill="#FFFFFF" width="74.831" height="3.898"/>
<rect x="268.006" y="372.261" transform="matrix(0.866 -0.5001 0.5001 0.866 -146.1971 202.8719)" fill="#FFFFFF" width="74.828" height="3.899"/>
<rect x="372.442" y="311.6" transform="matrix(0.8596 -0.511 0.511 0.8596 -102.6717 253.4722)" fill="#FFFFFF" width="74.83" height="3.895"/>
<rect x="370.632" y="371.121" transform="matrix(0.8669 0.4985 -0.4985 0.8669 240.3156 -153.7598)" fill="#FFFFFF" width="74.83" height="3.896"/>
<path fill="#FFFFFF" d="M258.185,387.362c-2.911-1.673-6.275-2.553-9.949-2.904l0.23-83.658c6.894-0.963,13.149-5.111,16.648-11.196
	c6.235-10.847,2.416-25.017-8.431-31.254c-10.317-5.932-22.934-2.978-30.035,6.316l-70.374-40.471
	c4.722-10.663,0.668-23.202-9.648-29.136c-10.849-6.238-25.017-2.414-31.252,8.432c-3.499,6.085-3.939,13.579-1.307,20.021
	l-72.302,41.856c-1.886-2.843-4.337-5.31-7.513-7.136c-10.848-6.241-25.016-2.416-31.254,8.43
	c-6.237,10.849-2.417,25.017,8.432,31.254c2.909,1.675,6.275,2.552,9.947,2.903l0.189,83.543
	c-6.893,0.966-13.149,5.115-16.65,11.202c-6.236,10.846-2.416,25.013,8.432,31.25c10.318,5.935,22.931,2.979,30.034-6.316
	l70.375,40.475c-4.723,10.66-0.668,23.202,9.649,29.135c10.846,6.237,25.015,2.414,31.251-8.432
	c3.502-6.087,3.938-13.58,1.308-20.024l72.302-41.854c1.884,2.846,4.339,5.31,7.513,7.137c10.845,6.237,25.015,2.414,31.252-8.434
	C272.855,407.769,269.297,393.753,258.185,387.362z M254.096,262.849c8.468,4.869,11.653,15.854,6.633,24.586
	c-3.042,5.293-8.58,8.795-15.016,8.968l0,0c-3.291,0.221-6.66-0.662-9.568-2.334c-8.467-4.87-11.652-15.856-6.635-24.587
	C234.533,260.75,245.63,257.98,254.096,262.849z M119.869,206.077c4.87-8.467,15.856-11.652,24.584-6.632
	c8.734,5.02,11.656,15.854,6.636,24.584c-5.022,8.732-15.854,11.655-24.585,6.633c-2.91-1.672-5.1-3.987-6.834-7.096
	C116.582,217.918,116.673,211.634,119.869,206.077z M7.345,269.516c4.868-8.467,15.855-11.651,24.584-6.634
	c2.912,1.675,5.363,4.141,6.833,7.099l0,0c2.825,5.498,2.731,11.779-0.312,17.071c-3.043,5.293-8.58,8.796-14.599,8.856
	c-3.293,0.218-6.66-0.662-9.57-2.336C5.511,289.232,2.477,277.981,7.345,269.516z M15.631,422.847
	c-8.467-4.868-11.655-15.854-6.634-24.587c3.044-5.289,8.58-8.794,15.017-8.966c3.293-0.218,6.66,0.661,9.569,2.336
	c8.467,4.869,11.654,15.856,6.633,24.584C35.194,424.947,24.098,427.718,15.631,422.847z M149.859,479.619
	c-4.87,8.467-15.857,11.652-24.587,6.635c-8.73-5.023-11.655-15.856-6.634-24.588c5.022-8.73,15.857-11.654,24.588-6.633
	c2.909,1.673,5.098,3.99,6.83,7.098l0,0C153.144,467.779,153.054,474.062,149.859,479.619z M153.324,457.672
	c-1.883-2.843-4.491-5.048-7.398-6.722c-10.317-5.931-23.198-3.126-30.037,6.318l-70.375-40.468
	c4.723-10.666,0.671-23.208-9.647-29.142c-2.91-1.672-6.125-2.817-9.533-3.014L26.147,301.1c6.893-0.966,12.885-5.263,16.385-11.35
	c3.499-6.081,3.936-13.58,1.567-19.868l72.304-41.857c1.886,2.843,4.492,5.048,7.4,6.72c10.318,5.934,23.197,3.13,30.037-6.315
	l70.373,40.472c-4.722,10.661-0.668,23.2,9.649,29.136c2.908,1.672,6.125,2.818,9.531,3.015l0.187,83.545
	c-6.893,0.967-12.887,5.268-16.386,11.35c-3.5,6.089-4.198,13.428-1.567,19.87L153.324,457.672z M237.797,422.814
	c-2.91-1.675-5.362-4.143-6.832-7.1c-2.824-5.493-2.729-11.776,0.313-17.069c3.041-5.289,8.577-8.797,14.596-8.857l0,0
	c3.294-0.215,6.659,0.662,9.572,2.339c8.466,4.867,11.651,15.854,6.632,24.584C257.061,425.441,246.265,427.685,237.797,422.814z"/>
<path fill="#FFFFFF" d="M141.405,331.474c6.137,3.529,8.249,11.364,4.72,17.501s-11.364,8.25-17.499,4.72
	c-6.138-3.524-8.252-11.361-4.724-17.5C127.431,330.058,135.268,327.942,141.405,331.474z"/>
<line fill="#FFFFFF" x1="50.432" y1="293.942" x2="115.299" y2="331.248"/>
<rect x="45.029" y="311.379" transform="matrix(0.8669 0.4985 -0.4985 0.8669 167.1606 0.6071)" fill="#FFFFFF" width="74.829" height="3.899"/>
<rect x="45.854" y="372.016" transform="matrix(0.866 -0.5 0.5 0.866 -175.8335 91.7433)" fill="#FFFFFF" width="74.833" height="3.898"/>
<rect x="150.29" y="311.352" transform="matrix(0.8596 -0.511 0.511 0.8596 -133.7407 139.9135)" fill="#FFFFFF" width="74.829" height="3.897"/>
<rect x="148.481" y="370.873" transform="matrix(0.8669 0.4985 -0.4985 0.8669 210.5997 -43.0422)" fill="#FFFFFF" width="74.829" height="3.899"/>
</svg>
